<svg width="24" height="21" viewBox="0 0 24 21" fill="none" xmlns="http://www.w3.org/2000/svg">
<path d="M22.1494 1.85655C21.5629 1.26797 20.8667 0.801067 20.1003 0.482513C19.334 0.16396 18.5126 0 17.6831 0C16.8535 0 16.0321 0.16396 15.2658 0.482513C14.4994 0.801067 13.8032 1.26797 13.2167 1.85655L11.9997 3.07749L10.7826 1.85655C9.59811 0.668216 7.99152 0.000615956 6.31633 0.000615969C4.64114 0.000615981 3.03455 0.668216 1.85001 1.85655C0.665469 3.04489 1.24812e-08 4.65662 0 6.33718C-1.24812e-08 8.01774 0.665469 9.62947 1.85001 10.8178L3.06705 12.0387L11.9997 21L20.9323 12.0387L22.1494 10.8178C22.7361 10.2295 23.2015 9.531 23.519 8.76219C23.8366 7.99339 24 7.16936 24 6.33718C24 5.50499 23.8366 4.68096 23.519 3.91216C23.2015 3.14336 22.7361 2.44486 22.1494 1.85655Z" fill="#FF5C5C"/>
</svg>
