<svg width="26" height="23" viewBox="0 0 26 23" fill="none" xmlns="http://www.w3.org/2000/svg">
<path d="M22.8994 2.60655C22.3129 2.01797 21.6167 1.55107 20.8503 1.23251C20.084 0.91396 19.2626 0.75 18.4331 0.75C17.6035 0.75 16.7821 0.91396 16.0158 1.23251C15.2494 1.55107 14.5532 2.01797 13.9667 2.60655L12.7497 3.82749L11.5326 2.60655C10.3481 1.41822 8.74152 0.750616 7.06633 0.750616C5.39114 0.750616 3.78455 1.41822 2.60001 2.60655C1.41547 3.79489 0.75 5.40662 0.75 7.08718C0.75 8.76774 1.41547 10.3795 2.60001 11.5678L3.81705 12.7887L12.7497 21.75L21.6823 12.7887L22.8994 11.5678C23.4861 10.9795 23.9515 10.281 24.269 9.51219C24.5866 8.74339 24.75 7.91936 24.75 7.08718C24.75 6.25499 24.5866 5.43096 24.269 4.66216C23.9515 3.89336 23.4861 3.19486 22.8994 2.60655Z" stroke="#2F2F2F" stroke-width="1.5" stroke-linecap="round" stroke-linejoin="round"/>
</svg>
