<svg width="17" height="19" viewBox="0 0 17 19" fill="none" xmlns="http://www.w3.org/2000/svg">
<path d="M8.89122 6.51496C8.89219 0.392326 8.89712 0.0398073 8.98203 0.0173552C9.03139 0.00432487 9.80965 -0.00299204 10.7115 0.00116763L12.3511 0.0086848L12.4136 0.484791C12.5527 1.54355 12.9963 2.44074 13.7397 3.16698C14.5507 3.95912 15.5797 4.40686 16.819 4.50674L16.973 4.51917L16.9865 6.21802L17 7.91687L16.3964 7.88664C15.1546 7.8245 13.7017 7.35576 12.6504 6.67814L12.3811 6.50453V9.91566C12.3811 13.6856 12.3631 13.9647 12.0643 14.8365C11.6804 15.9566 10.9063 17.0384 9.99984 17.7215C7.50826 19.5991 4.0375 19.3881 1.81235 17.2237C-0.953717 14.5331 -0.490525 10.0391 2.77132 7.91902C3.70427 7.31266 5.04331 6.9006 6.08323 6.89985L6.27563 6.8997V8.61975V10.3398L6.00627 10.3504C4.70648 10.4015 3.60052 11.4792 3.51695 12.7762C3.46508 13.5811 3.71227 14.2206 4.29844 14.7977C4.84783 15.3385 5.40199 15.5662 6.17507 15.5687C6.907 15.571 7.5511 15.3145 8.07222 14.8132C8.4526 14.4474 8.76798 13.8421 8.83996 13.3397C8.87059 13.1257 8.8906 10.463 8.89122 6.51496Z" fill="#F3F2F2"/>
</svg>
