<svg width="20" height="20" viewBox="0 0 20 20" fill="none" xmlns="http://www.w3.org/2000/svg">
<path d="M14 0C17.3137 1.28851e-07 20 2.68629 20 6V14C20 17.3137 17.3137 20 14 20H6C2.68629 20 1.28855e-07 17.3137 0 14V6C1.28855e-07 2.68629 2.68629 1.28851e-07 6 0H14ZM10 5C7.23858 5 5 7.23858 5 10C5 12.7614 7.23858 15 10 15C12.7614 15 15 12.7614 15 10C15 7.23858 12.7614 5 10 5ZM10 7C11.6569 7 13 8.34315 13 10C13 11.6569 11.6569 13 10 13C8.34315 13 7 11.6569 7 10C7 8.34315 8.34315 7 10 7ZM15 3C14.4477 3 14 3.44772 14 4C14 4.55228 14.4477 5 15 5C15.5523 5 16 4.55228 16 4C16 3.44772 15.5523 3 15 3Z" fill="#F3F2F2"/>
</svg>
