<svg width="491" height="44" viewBox="0 0 491 44" fill="none" xmlns="http://www.w3.org/2000/svg">
<g clip-path="url(#clip0_4655_389)">
<path d="M0 24.7793H202.215" stroke="#1C1C1C" stroke-width="1.5" stroke-miterlimit="10"/>
<path d="M206.048 28.6075C208.165 28.6075 209.881 26.8936 209.881 24.7793C209.881 22.6651 208.165 20.9512 206.048 20.9512C203.931 20.9512 202.215 22.6651 202.215 24.7793C202.215 26.8936 203.931 28.6075 206.048 28.6075Z" stroke="#1C1C1C" stroke-width="1.5" stroke-miterlimit="10"/>
<path d="M214.099 28.6075C216.216 28.6075 217.932 26.8936 217.932 24.7793C217.932 22.6651 216.216 20.9512 214.099 20.9512C211.982 20.9512 210.266 22.6651 210.266 24.7793C210.266 26.8936 211.982 28.6075 214.099 28.6075Z" stroke="#1C1C1C" stroke-width="1.5" stroke-miterlimit="10"/>
<path d="M490.432 24.8281H288.217" stroke="#1C1C1C" stroke-width="1.5" stroke-miterlimit="10"/>
<path d="M284.367 28.6564C286.484 28.6564 288.2 26.9424 288.2 24.8282C288.2 22.7139 286.484 21 284.367 21C282.25 21 280.534 22.7139 280.534 24.8282C280.534 26.9424 282.25 28.6564 284.367 28.6564Z" stroke="#1C1C1C" stroke-width="1.5" stroke-miterlimit="10"/>
<path d="M276.333 28.6564C278.45 28.6564 280.166 26.9424 280.166 24.8282C280.166 22.7139 278.45 21 276.333 21C274.216 21 272.5 22.7139 272.5 24.8282C272.5 26.9424 274.216 28.6564 276.333 28.6564Z" stroke="#1C1C1C" stroke-width="1.5" stroke-miterlimit="10"/>
<path d="M248.627 25.1309C248.627 25.1309 268.417 31.5218 259.645 40.1713C259.645 40.1713 260.848 44.7202 256.774 42.3176C256.774 42.3176 244.682 48.5484 245.596 27.4854" stroke="#1C1C1C" stroke-width="1.5" stroke-miterlimit="10"/>
<path d="M246.831 27.3263C246.831 27.3263 248.675 37.8978 252.957 35.7194C256.614 33.8614 251.45 28.3674 247.857 26.6055" fill="#1C1C1C"/>
<path d="M246.831 27.3263C246.831 27.3263 248.675 37.8978 252.957 35.7194C256.614 33.8614 251.45 28.3674 247.857 26.6055" stroke="#1C1C1C" stroke-width="1.5" stroke-miterlimit="10"/>
<path d="M243.511 21.4626C243.511 21.4626 230.457 5.28499 242.549 2.85033C242.549 2.85033 244.041 -1.61854 246.126 2.61007C246.126 2.61007 259.661 4.01961 247.328 21.1263" stroke="#1C1C1C" stroke-width="1.5" stroke-miterlimit="10"/>
<path d="M246.206 20.6152C246.206 20.6152 250.455 10.7644 245.692 10.2519C241.619 9.8034 242.918 17.2195 244.955 20.6632" fill="#1C1C1C"/>
<path d="M246.206 20.6152C246.206 20.6152 250.455 10.7644 245.692 10.2519C241.619 9.8034 242.918 17.2195 244.955 20.6632" stroke="#1C1C1C" stroke-width="1.5" stroke-miterlimit="10"/>
<path d="M246.976 21.271C246.976 21.271 259.292 4.53277 264.745 15.5848C264.745 15.5848 269.444 15.8892 265.884 18.9805C265.884 18.9805 267.985 32.4032 248.275 24.891" stroke="#1C1C1C" stroke-width="1.5" stroke-miterlimit="10"/>
<path d="M248.499 23.6588C248.499 23.6588 259.116 25.2445 258.41 20.5033C257.801 16.4509 250.953 19.6063 248.146 22.4575" fill="#1C1C1C"/>
<path d="M248.499 23.6588C248.499 23.6588 259.116 25.2445 258.41 20.5033C257.801 16.4509 250.953 19.6063 248.146 22.4575" stroke="#1C1C1C" stroke-width="1.5" stroke-miterlimit="10"/>
<path d="M241.651 26.1091C241.651 26.1091 221.38 30.7702 224.475 18.8372C224.475 18.8372 221.107 15.5375 225.838 15.5215C225.838 15.5215 233.023 3.98895 243.046 22.5372" stroke="#1C1C1C" stroke-width="1.5" stroke-miterlimit="10"/>
<path d="M242.052 23.3206C242.052 23.3206 235.043 15.1997 232.493 19.2522C230.312 22.7119 237.561 24.7942 241.555 24.4578" fill="#1C1C1C"/>
<path d="M242.052 23.3206C242.052 23.3206 235.043 15.1997 232.493 19.2522C230.312 22.7119 237.561 24.7942 241.555 24.4578" stroke="#1C1C1C" stroke-width="1.5" stroke-miterlimit="10"/>
<path d="M245.244 27.166C246.962 27.166 248.355 25.7747 248.355 24.0586C248.355 22.3424 246.962 20.9512 245.244 20.9512C243.525 20.9512 242.132 22.3424 242.132 24.0586C242.132 25.7747 243.525 27.166 245.244 27.166Z" stroke="#1C1C1C" stroke-width="1.5" stroke-miterlimit="10"/>
<path d="M245.548 27.8069C245.548 27.8069 243.319 48.4535 233.039 41.63C233.039 41.63 228.821 43.7283 230.345 39.2594C230.345 39.2594 221.781 28.7039 242.613 25.3242" stroke="#1C1C1C" stroke-width="1.5" stroke-miterlimit="10"/>
<path d="M243.046 26.5098C243.046 26.5098 233.055 30.4661 236.07 34.1982C238.636 37.3856 242.966 31.2349 243.96 27.3587" fill="#1C1C1C"/>
<path d="M243.046 26.5098C243.046 26.5098 233.055 30.4661 236.07 34.1982C238.636 37.3856 242.966 31.2349 243.96 27.3587" stroke="#1C1C1C" stroke-width="1.5" stroke-miterlimit="10"/>
</g>
<defs>
<clipPath id="clip0_4655_389">
<rect width="491" height="44" fill="white"/>
</clipPath>
</defs>
</svg>
